# xmcd
#
# Track frame offsets:
#	150
#	15657
#	27364
#	37924
#	53429
#	69720
#	86229
#	112451
#	122507
#	132328
#	153681
#	170705
#	178020
#	199458
#
# Disc length: 2883 seconds
#
# Revision: 1
# Processed by: cddbd v1.5.2PL0 Copyright (c) Steve Scherf et al.
# Submitted via: audiograbber 1.83.01
#
DISCID=cb0b410e
DTITLE=Trampled by Turtles - Trouble
DYEAR=2007
DGENRE=Country
TTITLE0=Valley
TTITLE1=Still In Love With You
TTITLE2=Arming of Infants
TTITLE3=Salvation
TTITLE4=Ceiling Slide
TTITLE5=Rich/Poor
TTITLE6=Like an Empty House
TTITLE7=Tap the Kitchen Floor
TTITLE8=Never Again
TTITLE9=Trouble
TTITLE10=Stranger
TTITLE11=Spoiler
TTITLE12=Who's Calling?
TTITLE13=Last Page
EXTD=
EXTT0=
EXTT1=
EXTT2=
EXTT3=
EXTT4=
EXTT5=
EXTT6=
EXTT7=
EXTT8=
EXTT9=
EXTT10=
EXTT11=
EXTT12=
EXTT13=
PLAYORDER=
